<?xml version="1.0" standalone="no"?>
<!DOCTYPE svg PUBLIC "-//W3C//DTD SVG 20010904//EN"
 "http://www.w3.org/TR/2001/REC-SVG-20010904/DTD/svg10.dtd">
<svg version="1.0" xmlns="http://www.w3.org/2000/svg"
 width="400.000000pt" height="400.000000pt" viewBox="0 0 400.000000 400.000000"
 preserveAspectRatio="xMidYMid meet">
<metadata>
Created by potrace 1.11, written by Peter Selinger 2001-2013
</metadata>
<g transform="translate(0.000000,400.000000) scale(0.100000,-0.100000)"
fill="#000000" stroke="none">
<path d="M1525 2388 c-4 -12 -29 -69 -55 -124 -63 -133 -105 -234 -130 -317
-42 -137 -199 -297 -292 -297 -43 0 -68 31 -62 76 3 21 6 38 7 39 121 59 169
88 208 127 57 57 87 127 71 163 -18 38 -81 38 -153 -1 -149 -82 -242 -272
-187 -384 35 -70 92 -85 173 -46 49 25 130 101 182 171 l21 30 -8 -43 c-8 -47
-3 -107 11 -134 22 -41 90 -15 170 66 l46 46 6 -46 c5 -52 34 -97 63 -102 43
-6 138 97 206 223 19 36 33 54 36 45 8 -27 35 -50 58 -50 21 0 23 -4 19 -42
-3 -24 0 -59 7 -78 11 -35 52 -79 76 -81 30 -3 39 -3 67 3 36 8 90 56 130 116
44 67 21 61 -47 -11 -67 -71 -93 -81 -136 -51 -22 15 -28 48 -16 89 4 12 32
33 73 52 81 39 146 100 176 166 36 76 13 113 -62 101 -75 -11 -162 -75 -218
-159 -20 -30 -40 -55 -46 -55 -19 0 -21 31 -4 78 29 83 29 89 2 107 -19 12
-31 14 -44 6 -10 -5 -51 -75 -91 -154 -41 -80 -93 -166 -117 -193 l-43 -49 -7
28 c-16 62 3 142 66 273 16 34 27 68 24 76 -10 24 -50 39 -68 25 -18 -14 -58
-99 -83 -177 -20 -65 -44 -102 -97 -152 -49 -48 -67 -49 -67 -5 0 80 66 264
166 468 31 63 58 122 59 131 5 23 -24 56 -57 63 -21 6 -27 3 -33 -17z m-305
-385 c-1 -11 -22 -45 -45 -75 -24 -30 -139 -118 -154 -118 -32 0 112 170 161
189 29 12 38 13 38 4z m971 -10 c-14 -27 -81 -87 -126 -114 l-40 -23 22 29
c28 40 70 78 113 104 42 25 43 25 31 4z"/>
<path d="M3783 2393 c-3 -10 -26 -67 -50 -128 -25 -60 -66 -167 -92 -237 -85
-228 -209 -360 -328 -349 -31 3 -36 121 -8 200 20 57 63 111 102 127 46 20 49
18 45 -22 -3 -26 0 -39 14 -49 21 -15 54 -3 54 20 0 7 16 44 35 81 42 80 43
92 8 100 -22 6 -31 2 -53 -25 -23 -27 -31 -30 -51 -23 -38 15 -95 7 -131 -17
-74 -52 -139 -179 -139 -275 -1 -56 -20 -85 -72 -113 -23 -11 -31 -12 -43 -2
-28 23 -7 98 76 271 44 93 46 119 8 139 -56 30 -151 -47 -260 -211 -36 -55
-47 -67 -42 -45 4 17 9 35 13 40 3 6 6 15 7 20 1 6 15 37 30 70 15 33 29 66
30 74 3 14 -39 61 -54 61 -17 0 -39 -36 -77 -125 -44 -103 -75 -162 -118 -223
-32 -44 -73 -64 -87 -42 -15 24 2 74 105 307 13 28 13 33 -6 57 -34 44 -54 34
-93 -46 -87 -180 -112 -324 -65 -374 12 -13 31 -24 41 -24 40 0 107 52 136
105 9 16 10 12 5 -20 -12 -73 -10 -88 19 -104 40 -23 54 -10 115 110 50 97
105 176 174 252 36 39 36 35 3 -39 -39 -88 -63 -191 -53 -231 19 -89 97 -98
182 -23 l36 31 17 -26 c57 -87 187 -65 293 51 27 30 52 54 54 54 2 0 -3 -28
-13 -62 -21 -79 -12 -125 27 -134 38 -10 50 2 101 96 61 115 137 233 164 256
l22 19 -15 -25 c-27 -43 -59 -149 -60 -199 -2 -61 25 -111 59 -111 33 0 80 27
119 67 48 52 30 60 -29 13 -61 -48 -77 -42 -72 25 3 42 48 148 109 255 30 53
31 71 6 94 -13 12 -27 15 -47 10 -40 -10 -151 -124 -213 -218 -28 -43 -51 -75
-51 -70 0 15 57 196 83 264 13 36 45 110 70 165 51 110 52 132 7 158 -35 21
-39 21 -47 0z"/>
<path d="M382 2302 c-19 -42 -36 -78 -36 -79 -1 -1 -42 -7 -91 -13 -199 -25
-255 -41 -255 -74 1 -48 8 -49 158 -18 78 16 143 28 145 25 3 -2 -3 -21 -13
-41 -126 -264 -154 -427 -85 -495 31 -32 102 1 160 73 31 39 45 42 45 11 0 -9
12 -29 28 -43 23 -21 32 -24 59 -16 17 4 45 22 62 38 36 36 37 36 45 7 6 -25
43 -47 78 -47 84 0 204 149 268 334 29 84 28 130 -2 150 -23 14 -29 6 -34 -46
-12 -111 -89 -280 -164 -355 -36 -36 -43 -39 -57 -20 -19 23 -5 93 35 182 35
76 39 92 27 104 -30 30 -58 5 -113 -98 -52 -99 -127 -190 -142 -175 -18 18 12
114 72 233 l62 123 -23 19 c-30 24 -46 24 -70 -2 -28 -30 -97 -175 -118 -248
-15 -52 -28 -74 -72 -118 -69 -70 -97 -70 -94 -2 2 41 46 194 73 254 5 11 23
54 40 95 18 41 37 81 44 87 6 7 39 15 71 18 73 5 396 6 445 0 19 -2 67 -6 105
-10 39 -4 81 -9 95 -11 141 -20 182 -14 128 19 -76 47 -289 71 -604 70 l-201
0 20 48 c20 46 20 49 3 68 -9 10 -26 21 -37 24 -18 5 -26 -6 -57 -71z"/>
<path d="M2719 2247 c-9 -7 -18 -25 -21 -41 -15 -80 43 -105 80 -35 l22 40
-25 25 c-27 27 -33 28 -56 11z"/>
</g>
</svg>
