<svg xmlns="http://www.w3.org/2000/svg" width="15.943" height="15.943" viewBox="0 0 15.943 15.943">
  <g id="confirm-2" transform="translate(-0.004)">
    <g id="Group_116" data-name="Group 116" transform="translate(0.004)">
      <path id="Path_23" data-name="Path 23" d="M7.975,0a7.971,7.971,0,1,0,7.971,7.971A7.98,7.98,0,0,0,7.975,0Zm3.676,6.743L7.466,10.929a.25.25,0,0,1-.344,0L4.315,8.121a.242.242,0,0,1-.071-.172.244.244,0,0,1,.071-.172l.359-.359a.245.245,0,0,1,.344,0L7.207,9.607a.124.124,0,0,0,.176,0L10.949,6.04a.25.25,0,0,1,.344,0l.359.359a.243.243,0,0,1,0,.344Z" transform="translate(-0.004)" fill="#5fe238"/>
    </g>
  </g>
</svg>
