<svg xmlns="http://www.w3.org/2000/svg" width="22.395" height="22.399" viewBox="0 0 22.395 22.399">
  <g id="instagram" transform="translate(-0.449)">
    <path id="Path_1" data-name="Path 1" d="M22.787,6.585a8.185,8.185,0,0,0-.521-2.717A5.738,5.738,0,0,0,18.989.591,8.206,8.206,0,0,0,16.272.07C15.073.013,14.692,0,11.651,0S8.229.013,7.035.066A8.187,8.187,0,0,0,4.317.586a5.465,5.465,0,0,0-1.987,1.3A5.515,5.515,0,0,0,1.04,3.864,8.207,8.207,0,0,0,.519,6.581C.462,7.78.449,8.161.449,11.2s.013,3.422.066,4.616a8.184,8.184,0,0,0,.521,2.717,5.737,5.737,0,0,0,3.277,3.277,8.207,8.207,0,0,0,2.717.521c1.194.053,1.575.066,4.616.066s3.422-.013,4.616-.066a8.183,8.183,0,0,0,2.717-.521,5.729,5.729,0,0,0,3.277-3.277,8.212,8.212,0,0,0,.521-2.717c.052-1.195.066-1.575.066-4.616S22.839,7.78,22.787,6.585ZM20.77,15.73a6.139,6.139,0,0,1-.385,2.078,3.716,3.716,0,0,1-2.127,2.127,6.161,6.161,0,0,1-2.078.385c-1.181.053-1.536.066-4.524.066s-3.347-.013-4.525-.066a6.136,6.136,0,0,1-2.078-.385A3.447,3.447,0,0,1,3.766,19.1a3.482,3.482,0,0,1-.836-1.286,6.162,6.162,0,0,1-.385-2.078C2.493,14.553,2.48,14.2,2.48,11.21s.013-3.347.066-4.524A6.136,6.136,0,0,1,2.93,4.608a3.4,3.4,0,0,1,.84-1.287,3.477,3.477,0,0,1,1.286-.836A6.165,6.165,0,0,1,7.135,2.1c1.181-.052,1.536-.066,4.524-.066s3.347.013,4.525.066a6.139,6.139,0,0,1,2.078.385,3.444,3.444,0,0,1,1.286.836,3.482,3.482,0,0,1,.836,1.287,6.164,6.164,0,0,1,.385,2.078c.052,1.181.066,1.536.066,4.524S20.822,14.549,20.77,15.73Zm0,0" fill="#fff"/>
    <path id="Path_2" data-name="Path 2" d="M130.7,124.5a5.754,5.754,0,1,0,5.754,5.754A5.755,5.755,0,0,0,130.7,124.5Zm0,9.486a3.732,3.732,0,1,1,3.732-3.732A3.733,3.733,0,0,1,130.7,133.986Zm0,0" transform="translate(-119.052 -119.052)" fill="#fff"/>
    <path id="Path_3" data-name="Path 3" d="M365.136,89.945a1.343,1.343,0,1,1-1.343-1.343A1.343,1.343,0,0,1,365.136,89.945Zm0,0" transform="translate(-346.16 -84.725)" fill="#fff"/>
  </g>
</svg>
