<svg xmlns="http://www.w3.org/2000/svg" width="500.002" height="500" viewBox="0 0 500.002 500">
  <g id="new_product_alt" transform="translate(0 -0.001)">
    <g id="Group_2" data-name="Group 2" transform="translate(93.934 196.545)">
      <g id="Group_1" data-name="Group 1">
        <path id="Path_1" data-name="Path 1" d="M155.547,201.261V250.3l-38.712-49.035H96.188V297.7h26.486V250.3l38.3,47.4h21.054v-96.44Z" transform="translate(-96.188 -201.261)" fill="#13c688"/>
      </g>
    </g>
    <g id="Group_4" data-name="Group 4" transform="translate(196.35 196.545)">
      <g id="Group_3" data-name="Group 3">
        <path id="Path_2" data-name="Path 2" d="M227.548,274.609V259.4h35.044V237.935H227.548V224.352H268.57V201.261H201.062V297.7h68.731V274.609Z" transform="translate(-201.062 -201.261)" fill="#13c688"/>
      </g>
    </g>
    <g id="Group_6" data-name="Group 6" transform="translate(267.524 196.545)">
      <g id="Group_5" data-name="Group 5">
        <path id="Path_3" data-name="Path 3" d="M391.98,201.261,371.2,267.41l-6.927-20.1,15.893-46.047H355.849l-8.558,29.747-8.421-29.747H314.555l15.62,46.047-6.654,20.1L302.6,201.261h-28.66L311.7,297.7h22.006l13.582-34.5,13.719,34.5h22l37.761-96.44Z" transform="translate(-273.943 -201.261)" fill="#13c688"/>
      </g>
    </g>
    <g id="Group_8" data-name="Group 8" transform="translate(0 0.001)">
      <g id="Group_7" data-name="Group 7">
        <path id="Path_4" data-name="Path 4" d="M477.808,250,500,210.405l-33.345-30.8,8.874-44.517L434.3,116.1l-5.317-45.08L383.9,65.7,364.914,24.473,320.4,33.347,289.6,0,250,22.2,210.405,0l-30.8,33.345-44.517-8.874L116.1,65.7,71.021,71.02,65.7,116.1,24.473,135.088l8.874,44.517L0,210.405,22.194,250,0,289.6l33.345,30.8-8.874,44.517L65.7,383.9l5.317,45.08L116.1,434.3l18.988,41.231,44.517-8.874L210.4,500,250,477.807,289.595,500l30.8-33.345,44.517,8.874L383.9,434.3l45.08-5.317L434.3,383.9l41.231-18.988L466.653,320.4,500,289.6Zm-14.682,33.755L434.7,310.015l7.564,37.95-35.15,16.187-4.533,38.43-38.43,4.533-16.187,35.15-37.95-7.564-26.257,28.427L250,444.206l-33.755,18.921L189.988,434.7l-37.95,7.564-16.187-35.15-38.43-4.533-4.533-38.43-35.15-16.187,7.564-37.95L36.875,283.756,55.8,250,36.875,216.245,65.3,189.987l-7.564-37.95,35.15-16.187,4.533-38.43,38.43-4.533,16.187-35.15,37.95,7.564,26.258-28.428L250,55.8l33.755-18.921L310.014,65.3l37.95-7.564,16.187,35.15,38.43,4.533,4.533,38.43,35.15,16.187-7.564,37.95,28.427,26.259L444.2,250Z" transform="translate(0 -0.001)" fill="#13c688"/>
      </g>
    </g>
  </g>
</svg>
