<?xml version="1.0" encoding="iso-8859-1"?>
<!-- Generator: Adobe Illustrator 19.0.0, SVG Export Plug-In . SVG Version: 6.00 Build 0)  -->
<svg version="1.1" id="Capa_1" xmlns="http://www.w3.org/2000/svg" xmlns:xlink="http://www.w3.org/1999/xlink" x="0px" y="0px"
	 viewBox="0 0 512 512" style="enable-background:new 0 0 512 512;" xml:space="preserve">
<g>
	<g>
		<polygon points="156.971,201.261 156.971,251.473 117.33,201.261 96.188,201.261 96.188,300.015 123.31,300.015 123.31,251.473 
			162.534,300.015 184.093,300.015 184.093,201.261 		"/>
	</g>
</g>
<g>
	<g>
		<polygon points="228.184,276.369 228.184,260.791 264.069,260.791 264.069,238.815 228.184,238.815 228.184,224.906 
			270.19,224.906 270.19,201.261 201.062,201.261 201.062,300.015 271.442,300.015 271.442,276.369 		"/>
	</g>
</g>
<g>
	<g>
		<polygon points="394.812,201.261 373.531,268.997 366.438,248.413 382.712,201.261 357.814,201.261 349.051,231.722 
			340.428,201.261 315.53,201.261 331.525,248.413 324.711,268.997 303.291,201.261 273.943,201.261 312.609,300.015 
			335.143,300.015 349.051,264.686 363.099,300.015 385.632,300.015 424.299,201.261 		"/>
	</g>
</g>
<g>
	<g>
		<path d="M489.273,256.001L512,215.454l-34.145-31.538l9.087-45.585l-42.22-19.444l-5.445-46.162l-46.162-5.445L373.67,25.06
			l-45.585,9.087L296.546,0.001L256,22.728L215.454,0.001l-31.538,34.145l-45.585-9.087l-19.444,42.22l-46.162,5.445l-5.445,46.162
			L25.06,138.33l9.087,45.585L0,215.454l22.727,40.546L0,296.547l34.145,31.538l-9.087,45.585l42.22,19.444l5.445,46.162
			l46.162,5.445l19.444,42.22l45.585-9.087l31.538,34.145l40.546-22.727l40.546,22.727l31.538-34.145l45.585,9.087l19.444-42.22
			l46.162-5.445l5.445-46.162l42.22-19.444l-9.087-45.585l34.145-31.538L489.273,256.001z M474.239,290.566l-29.11,26.888
			l7.746,38.861l-35.993,16.575l-4.642,39.352l-39.352,4.642l-16.575,35.993l-38.861-7.746l-26.887,29.109L256,454.865
			l-34.565,19.375l-26.888-29.11l-38.861,7.746l-16.575-35.993l-39.352-4.642l-4.642-39.352l-35.993-16.575l7.746-38.861
			l-29.11-26.888l19.375-34.565L37.76,221.434l29.11-26.888l-7.746-38.861l35.993-16.575l4.642-39.352l39.352-4.642l16.575-35.993
			l38.861,7.746l26.888-29.11L256,57.134l34.565-19.375l26.888,29.11l38.861-7.746l16.575,35.993l39.352,4.642l4.642,39.352
			l35.993,16.575l-7.746,38.861l29.109,26.889l-19.375,34.565L474.239,290.566z"/>
	</g>
</g>
<g>
</g>
<g>
</g>
<g>
</g>
<g>
</g>
<g>
</g>
<g>
</g>
<g>
</g>
<g>
</g>
<g>
</g>
<g>
</g>
<g>
</g>
<g>
</g>
<g>
</g>
<g>
</g>
<g>
</g>
</svg>
