<svg xmlns="http://www.w3.org/2000/svg" width="434.012" height="552.565" viewBox="0 0 434.012 552.565">
  <g id="tag" transform="matrix(0.966, -0.259, 0.259, 0.966, -84.553, 105.202)">
    <path id="Path_5" data-name="Path 5" d="M372.089,74.456l-89.529-63.2a61.771,61.771,0,0,0-71.11,0l-89.529,63.2a81.331,81.331,0,0,0-34.385,66.361v280A65.855,65.855,0,0,0,153.316,486.6H340.693a65.855,65.855,0,0,0,65.781-65.781v-280a81.334,81.334,0,0,0-34.385-66.361Zm3.74,346.36a35.175,35.175,0,0,1-35.135,35.135H153.315a35.175,35.175,0,0,1-35.135-35.135v-280a50.646,50.646,0,0,1,21.413-41.325l89.529-63.2a31.068,31.068,0,0,1,35.764,0l89.529,63.2a50.647,50.647,0,0,1,21.413,41.325v280Z" transform="translate(0 0)" fill="#f66"/>
    <circle id="Ellipse_1" data-name="Ellipse 1" cx="20.275" cy="20.275" r="20.275" transform="translate(226.729 63.125)" fill="#f66"/>
    <path id="Path_6" data-name="Path 6" d="M252.73,271.575c-11.664-.407-18.357-8.809-18.357-17.842,0-17.992,23.8-24.592,33.094-9.173a15.323,15.323,0,1,0,26.246-15.82,48.744,48.744,0,0,0-27.021-21.2v-8.6a15.323,15.323,0,1,0-30.645,0v9.1a48.536,48.536,0,0,0-32.32,45.686c0,27.263,22.515,48.461,47.926,48.461a17.835,17.835,0,0,1,17.816,17.816c0,17.993-23.8,24.593-33.094,9.172A15.323,15.323,0,0,0,210.129,345a48.749,48.749,0,0,0,27.021,21.2v8.6a15.323,15.323,0,1,0,30.646,0v-9.1a48.448,48.448,0,0,0-15.065-94.121Z" transform="translate(-4.918 -7.772)" fill="#f66"/>
  </g>
</svg>
