<svg xmlns="http://www.w3.org/2000/svg" width="264.011" height="264" viewBox="0 0 264.011 264">
  <g id="pinterest" transform="translate(0 -0.01)">
    <g id="Group_1" data-name="Group 1" transform="translate(0 0.01)">
      <path id="Path_4" data-name="Path 4" d="M198.265,17.714A129.117,129.117,0,0,0,132.005.01a129.12,129.12,0,0,0-66.262,17.7A131.439,131.439,0,0,0,17.7,65.753,129.132,129.132,0,0,0,0,132.016q0,40.048,21.828,72.7a131.525,131.525,0,0,0,57.237,48.3Q78.374,234.626,81.3,222.6L98.315,150.75q-4.3-8.42-4.3-20.969,0-14.609,7.39-24.406t18.048-9.8q8.591,0,13.235,5.675t4.642,14.265a53.516,53.516,0,0,1-1.976,12.978q-1.98,7.65-5.156,17.7t-4.556,16.07q-2.41,10.483,3.953,17.961t16.845,7.476q18.393,0,30.167-20.452t11.773-49.677q0-22.514-14.523-36.611T133.384,66.868q-29.052,0-47.01,18.647a62.052,62.052,0,0,0-17.961,44.6q0,15.471,8.766,25.957a7.84,7.84,0,0,1,1.891,7.387q-.347,1.034-1.375,5.155c-.686,2.748-1.146,4.529-1.375,5.329q-1.377,5.5-6.534,3.438-13.236-5.5-20.109-19.078T42.8,126.853A75.018,75.018,0,0,1,46.5,103.82,78.543,78.543,0,0,1,58.012,81.559,90.507,90.507,0,0,1,76.749,62.568,88.021,88.021,0,0,1,103.306,49.33,110.452,110.452,0,0,1,137,44.347q24.407,0,43.829,10.827t29.651,28.019A70.747,70.747,0,0,1,220.7,119.978q0,25.782-8.938,46.41t-25.268,32.4a61.916,61.916,0,0,1-37.128,11.773,40.721,40.721,0,0,1-19.6-4.9q-9.115-4.9-12.549-11.6-7.734,30.419-9.282,36.266-3.269,12.207-13.408,28.189a132,132,0,0,0,103.73-12.2,131.451,131.451,0,0,0,48.042-48.045,129.14,129.14,0,0,0,17.7-66.26,129.152,129.152,0,0,0-17.7-66.262A131.506,131.506,0,0,0,198.265,17.714Z" transform="translate(0 -0.01)" fill="#fff"/>
    </g>
  </g>
</svg>
