<svg xmlns="http://www.w3.org/2000/svg" width="40.752" height="40.752" viewBox="0 0 40.752 40.752">
  <g id="tag" transform="translate(-61.897 78.031) rotate(-45)">
    <path id="Path_20" data-name="Path 20" d="M107.894,5.328,101.488.806a4.419,4.419,0,0,0-5.088,0L90,5.328a5.819,5.819,0,0,0-2.46,4.748V30.108a4.712,4.712,0,0,0,4.706,4.706h13.406a4.712,4.712,0,0,0,4.706-4.706V10.076a5.819,5.819,0,0,0-2.46-4.748Zm.268,24.78a2.517,2.517,0,0,1-2.514,2.514H92.241a2.517,2.517,0,0,1-2.514-2.514V10.076a3.623,3.623,0,0,1,1.532-2.957L97.665,2.6a2.223,2.223,0,0,1,2.559,0l6.405,4.521a3.624,3.624,0,0,1,1.532,2.957V30.108Z" transform="translate(0 0)" fill="#070707"/>
    <circle id="Ellipse_3" data-name="Ellipse 3" cx="1.451" cy="1.451" r="1.451" transform="translate(97.494 4.517)" fill="#070707"/>
    <path id="Path_21" data-name="Path 21" d="M207.234,189.916a1.275,1.275,0,1,1,1.054-1.933,1.1,1.1,0,1,0,1.878-1.132,3.488,3.488,0,0,0-1.933-1.517v-.615a1.1,1.1,0,1,0-2.193,0v.651a3.467,3.467,0,0,0,1.117,6.736,1.275,1.275,0,1,1-1.093,1.931,1.1,1.1,0,0,0-1.878,1.132,3.488,3.488,0,0,0,1.933,1.517v.615a1.1,1.1,0,1,0,2.193,0v-.651a3.466,3.466,0,0,0-1.078-6.734Z" transform="translate(-108.232 -171.042)" fill="#070707"/>
  </g>
</svg>
