<svg xmlns="http://www.w3.org/2000/svg" width="76.293" height="92.177" viewBox="0 0 76.293 92.177">
  <path id="shopping-bag" d="M94.253,88.328,88.644,25.862a3.308,3.308,0,0,0-3.3-3.013H73.782V17.633a17.631,17.631,0,1,0-35.262,0V22.85H26.945a3.308,3.308,0,0,0-3.3,3.013L18.018,88.573a3.309,3.309,0,0,0,3.3,3.6H90.989A3.308,3.308,0,0,0,94.3,88.869,3.37,3.37,0,0,0,94.253,88.328ZM45.137,17.633a11.014,11.014,0,1,1,22.029,0V22.85H45.137Zm-20.2,67.928L29.97,29.467h8.55v5.917a3.309,3.309,0,1,0,6.617,0V29.467H67.165v5.917a3.309,3.309,0,0,0,6.617,0V29.467h8.542l5.037,56.094H24.933Z" transform="translate(-18.005)" fill="#f66"/>
</svg>
