<svg id="Group_118" data-name="Group 118" xmlns="http://www.w3.org/2000/svg" width="170" height="30.01" viewBox="0 0 170 30.01">
  <path id="star" d="M30.01,11.254H19.225L15,0l-4.22,11.254H0l8.12,7.105L3.751,30.01,15,24.383,26.259,30.01,21.889,18.359Z" transform="translate(0)"/>
  <path id="star-2" data-name="star" d="M30.01,11.254H19.225L15,0l-4.22,11.254H0l8.12,7.105L3.751,30.01,15,24.383,26.259,30.01,21.889,18.359Z" transform="translate(34.998)"/>
  <path id="star-3" data-name="star" d="M30.01,11.254H19.225L15,0l-4.22,11.254H0l8.12,7.105L3.751,30.01,15,24.383,26.259,30.01,21.889,18.359Z" transform="translate(69.995)"/>
  <path id="star-4" data-name="star" d="M30.01,11.254H19.225L15,0l-4.22,11.254H0l8.12,7.105L3.751,30.01,15,24.383,26.259,30.01,21.889,18.359Z" transform="translate(104.993)"/>
  <path id="star-5" data-name="star" d="M30.01,11.254H19.225L15,0l-4.22,11.254H0l8.12,7.105L3.751,30.01,15,24.383,26.259,30.01,21.889,18.359Z" transform="translate(139.99)"/>
</svg>
