<svg id="Sort" xmlns="http://www.w3.org/2000/svg" viewBox="0 0 824.77 168.1"><path id="TW" d="M362.85,372.5c-3.75-.25-4,6.33-4.75,13.75-1.79,16.88-8.38,31.75-15.75,44.5-20.47,35.37-27.6,32.25-29.48,30.5-3.55-3.32-3.93-13.57,1.57-26.42,4.37-10.19,7.77-17.36,9.85-21.62a39,39,0,0,0,2-4.34c2.1-6.49.26-8.26-3-10.17l-.72-.27a18.25,18.25,0,0,0-3.75.32c-1.89.22-4.58,1.27-6.62,5.06-3.79,7.05-11,19.94-16.07,29.22-.54.93-1.08,1.89-1.64,2.88-5.33,9.42-13.08,19.66-22.35,22.54-1.25-4.19-1.16-24.71,23.44-63.84,3.46-5.51,4.54-9.81,3.2-12.78a5.53,5.53,0,0,0-3.58-3.07,14,14,0,0,0-6.67-1.94,9.26,9.26,0,0,0-8.07,4.72c-1.16,1.85-21.76,35.06-26.1,61.26a99,99,0,0,1-23.56,23c-3.18,2.21-5.72,1.75-6.79,1.09-2.1-1.55-2.53-7.91-1.16-16.17,2.39-14.32,15.14-50.62,32.5-86.51,17.9-1.75,38.51-3,61.38-3A681.53,681.53,0,0,1,418.47,369a50,50,0,0,0,10.77,1.72c2.82,0,4.34-.85,4.52-2.54.15-1.39-.59-3.37-7.65-6.4a109.67,109.67,0,0,0-19.65-5.88c-17.36-3.63-51.36-7.51-94.72-7.51q-24.76,0-49.32,1.65,2.55-4.89,5.2-9.68l.09-.18c4.54-9.18,3-13.06-.84-16.18a77.94,77.94,0,0,0-7-4.52c-2.59-1.37-4.92,3-8.21,9.65-3.19,6.44-7,14.21-11,22.7-18.87,1.84-37.54,4.4-55.9,7.7h-.09c-11,2.54-15.44,4.58-14.69,10.69l0,.44c.28,2.4.86,7.4,5.93,7.4h0a9.59,9.59,0,0,0,2.83-.48c.33-.09,20.35-6.14,54.92-10.85C223,390.22,212,416.36,207,435.19c-3.6,13.41-3.77,31.52,2.87,40.18a11.72,11.72,0,0,0,9.5,4.92h0c9,0,20.52-9.6,34.17-28.53,0,5.18,1,9.82,3.23,13.54,3.27,5.33,7.34,8,12.13,8,9.76,0,19.67-11.75,24.44-18.31,0,0-1.15,14.15,10.88,16.93,17.75,4.11,32.43-15.31,32.43-15.31s24.58-27.92,32.65-64.2C372.62,377.42,368.07,372.85,362.85,372.5Z" transform="translate(-169.91 -312.81)"/><path id="ELVE" d="M625.26,376.79c-8.48,0-20.12,4.72-30.4,12.32A77.58,77.58,0,0,0,570,419.79a12.21,12.21,0,0,1-5.35,2h-.16a1.83,1.83,0,0,1-1.69-1c-1.91-3.14-1-12.21,3.41-20.71l.59-1.12C570.41,392,573,387,564,382.12l0,0a10.1,10.1,0,0,0-4.48-1.18c-5.71,0-8.52,6-11.24,11.87-.5,1.08-1,2.19-1.55,3.25-.86,1.72-1.92,3.9-3.14,6.42-8.16,16.85-27.17,56.08-39.38,59.47-1.2-1.25-3.21-7.74-2-18.9,1.08-10.14,5.06-26.67,17.86-47.86l0-.09c4.92-9.31-.9-12.43-3.09-13.61l-.36-.19-.21-.12a11.52,11.52,0,0,0-5.47-1.82,6.39,6.39,0,0,0-5.63,3.52,191.29,191.29,0,0,0-14.4,32.87c-1.22,3.75-2.22,7.36-3.05,10.85-8.19,16-22,27.75-28.14,30.68a1.57,1.57,0,0,1-.64.15,2,2,0,0,1-1.47-1.1c-1.85-3-8.44-23.26,43.37-123.68,2.26-4.38,3.83-11.22-1.88-15.3-.29-.2-.57-.42-.85-.63a22.3,22.3,0,0,0-5.32-2.7c-3.28-1.08-7.3-2.27-7.58.58-.46,4.8-3.14,9.47-4.08,11.67-10.29,21-29.52,59.06-38.76,93.65-37.6,59.42-63,49.44-66.81,45.87S372,450.5,374.75,444c11.33-4,52.75-19.83,58.58-52,.61-3.54.16-6.68-1.85-8.84-2.28-2.44-5.91-3.73-10.5-3.73-17,0-45,18.24-57.48,47-7.5,16.07-6.33,32.67.72,42.54a21.84,21.84,0,0,0,18.47,9.42c8.94,0,20.71-5.5,30.55-15a196.14,196.14,0,0,0,26.29-30.78c-2,10.32-2.81,20.08-1.89,28.65v.05c1.3,9.78,6.29,11.83,10.24,11.83,11.71,0,30.17-19,37.31-29.08-.56,11.37,1.6,20.83,6.5,28.26l.08.11a9.43,9.43,0,0,0,7.69,4c9.67,0,21.58-14.14,29.86-26a224.7,224.7,0,0,0,18.76-32.57,21.42,21.42,0,0,0,3.78,9.64,10.2,10.2,0,0,0,8.29,4.12,16.58,16.58,0,0,0,6.2-1.36c-3.55,13.43-2.44,25.58,3.22,33.69,3.75,5.36,8.74,8.07,15.11,9.14,10.06,1.69,22.31-.73,39.64-27.23,3.27-5,3.71-6.65,3.06-7.89-.38-.73-1.56-.52-2.62-.17a3.83,3.83,0,0,0-2,1.48c-14.36,19.08-21.43,24.67-27.26,25.25-5.06.49-10-1.12-12.88-4.33-3.11-3.78-3.24-12.61-.4-21.45a127.4,127.4,0,0,0,28.45-14.59c14.69-10.32,23.37-22.3,25.79-35.62.75-4.19-.51-6.76-1.7-8.18C632.83,378,629.54,376.79,625.26,376.79ZM421.58,393.73c.31-.07.51-.19.67-.23.1,3.17-7.29,25.4-44.41,43.78C387.21,417.28,406.27,397.22,421.58,393.73Zm193.79,13.08c-4.76,4.95-13.3,12.16-27.63,19.63a77.57,77.57,0,0,1,34.6-31.25A4,4,0,0,1,623,395C623,396.31,621.41,400.54,615.37,406.81Z" transform="translate(-169.91 -312.81)"/><path id="INCH" d="M992.39,448.61c-.8,0-1.62.36-3.67,2.25-9.29,8.56-15.63,12.9-18.86,12.9a1.89,1.89,0,0,1-1.49-.58c-2.08-2.16-1.77-9.91-1.67-12.5.09-6.12,3.17-18.2,26.4-57.71l.1-.19c2.36-5.36,1.47-9,.3-11.08a10.28,10.28,0,0,0-7.61-5,4.75,4.75,0,0,0-.77-.05c-5,0-13.25,5.25-22.19,14.05-11.77,11.58-24.68,28.93-38.47,51.64,6.3-22.73,19.21-68.2,40.21-106.7,0,0,5.79-10.29-.67-16.79a17.69,17.69,0,0,0-5.35-3.86c-2.65-1.22-7.83-4.21-9,1.86-1.37,8.5-15.13,38.72-20.37,51.6-6.32,15.51-11.92,31.28-16.54,45.92-10.55,17.34-33.11,49.16-56.44,49.16-.53,0-1.07,0-1.6-.05-4.94-.31-8-8.44-7.63-20.22.67-21,12.45-50.57,36.55-50.86-1.64,4.16-2.6,8.08-2.09,11,1.82,10.46,10,9.32,12.5,7.05s3.19-17.28,15-31.38c3.64-5,.68-8.18-2-9.55s-7.5-3.41-10.23-.22c0,0-4,5.54-7.91,12.44a28.12,28.12,0,0,0-16-4.95,29,29,0,0,0-12.13,2.7c-16.47,7.94-31.39,33.16-33.25,56.22a49,49,0,0,0,.52,12.72c-18.44,21.22-24.51,15.35-26.05,13.05-2.06-3.09-3.46-16.08,23.47-67,2.35-4.19,2.52-8.41.49-11.87-2.18-3.74-6.69-6.05-11.74-6.05a17.3,17.3,0,0,0-8.51,2.27c-5.8,3.28-16.18,13.75-26.44,26.68a256,256,0,0,0-22.58,33.5c3.27-12.69,5.77-22,16.89-44.68,5.5-11.21-4.13-15.88-8.56-17.82-2.65-1.16-4.92,1.31-6.8,4.37l-.06.11c-.07.13-7,13.36-13.42,29.85-.06.17-.12.32-.18.48l-.07.1c-9.9,24.29-28.87,54.64-37.92,46.43a2,2,0,0,0-.16-.14,1.6,1.6,0,0,1-.22-.28c-1.6-2.57-4.46-10.43,21.25-62.6,1.39-2.7,2.24-4.92,2.15-7.05C729,380.2,718,375.75,718,375.75c-3.25-.5-5.14,4.16-6.08,5.92-.07.11-5.88,11.3-11.94,26C691.76,427.49,688,443.1,688.91,454c.72,11.12,6.63,18.59,14.72,18.59,9.1,0,19.5-9.14,30.19-26.22-1.21,5.19-2.18,9.79-3.24,13.91-3.58,15.54.06,15.46,7.84,17.5,8.41,2.21,9.08-.87,13.66-9.83.87-1.49,5.34-11.17,5.92-12.46,5.41-12,19.78-37.8,46.24-62.41a215.52,215.52,0,0,0-13.14,28.19c-6.79,18-8.7,31.45-5.67,40,2.67,7.54,8,11.7,15,11.7,6,0,12.87-3.09,19.81-8.93a76.08,76.08,0,0,0,9.34-9.51,27.86,27.86,0,0,0,10.15,13.53,25.51,25.51,0,0,0,14.91,4.65c16.31,0,35.32-13.94,52-37.73a279,279,0,0,0-6.95,31.29c-1.4,9.6,2.56,12.69,11.31,14.35,6.31,1.19,8.17-1.67,15-15.92,6.12-12.76,25.65-48.05,41.46-63-6.21,11.1-14.37,29-16.14,43.75-1.22,10.17.39,18.61,4.41,23.14a11.35,11.35,0,0,0,8.73,3.89c7.14,0,16-5.5,26.46-16.35,1.55-1.61,4-4.59,3.28-6.37A2,2,0,0,0,992.39,448.61Z" transform="translate(-169.91 -312.81)"/><path id="Dot_i" data-name="Dot i" d="M730.12,369.33c6.8,3.37,7.71-.28,11.72-6.58s6.8-10.21.53-15.12c-5.23-4.1-10-5.56-14.2,1.12-2.35,3.74-2.41,9.41-2.28,11.91C726,363.76,725.57,367.07,730.12,369.33Z" transform="translate(-169.91 -312.81)"/></svg>